<svg xmlns="http://www.w3.org/2000/svg" viewBox="0 0 291.3 291.3"><path d="M145.7 0c80.5 0 145.7 65.2 145.7 145.7s-65.2 145.7-145.7 145.7S0 226.1 0 145.7 65.2 0 145.7 0z" fill="#0E76A8"/><path d="M82.1 200.1h27.3v-90.9H82.1V200.1zM188.3 106.1c-13.2 0-25.1 4.8-33.5 15.5v-12.7H127.5v91.2h27.4v-49.3c0-10.4 9.6-20.6 21.5-20.6s14.9 10.2 14.9 20.3v49.6h27.3v-51.6C218.6 112.7 201.6 106.1 188.3 106.1zM95.6 100.1c7.5 0 13.7-6.1 13.7-13.7S103.1 72.8 95.6 72.8s-13.7 6.1-13.7 13.7S88.1 100.1 95.6 100.1z" fill="#FFF"/></svg>